<?xml version="1.0" standalone="no"?>
<!DOCTYPE svg PUBLIC "-//W3C//DTD SVG 20010904//EN"
 "http://www.w3.org/TR/2001/REC-SVG-20010904/DTD/svg10.dtd">
<svg version="1.0" xmlns="http://www.w3.org/2000/svg"
 width="1254.000000pt" height="1254.000000pt" viewBox="0 0 1254.000000 1254.000000"
 preserveAspectRatio="xMidYMid meet">

<g transform="translate(0.000000,1254.000000) scale(0.100000,-0.100000)"
fill="#ffffff" stroke="none">
<path d="M5835 12079 c-236 -24 -391 -47 -580 -85 -44 -9 -91 -18 -105 -21
-209 -36 -573 -145 -848 -254 -182 -73 -227 -93 -497 -225 -208 -101 -321
-162 -456 -247 -374 -235 -766 -562 -1097 -916 -185 -198 -192 -207 -312 -358
-309 -388 -519 -711 -719 -1108 -137 -271 -148 -296 -240 -545 -24 -63 -47
-124 -51 -135 -46 -104 -171 -582 -209 -800 -58 -325 -98 -810 -87 -1042 24
-504 46 -706 112 -1033 48 -240 176 -686 243 -849 17 -41 31 -77 31 -82 0 -8
81 -193 150 -344 304 -663 783 -1309 1375 -1851 317 -291 799 -620 1200 -822
111 -55 374 -173 470 -209 44 -17 112 -43 150 -58 195 -75 550 -176 790 -224
55 -11 154 -29 220 -40 111 -18 165 -25 380 -51 597 -73 1343 -2 2013 190 573
165 1151 440 1642 780 1023 709 1835 1804 2200 2971 120 383 202 782 229 1114
26 316 31 410 31 565 0 652 -128 1367 -347 1940 -59 155 -75 197 -88 225 -8
17 -35 77 -60 135 -60 138 -226 458 -304 588 -258 432 -569 830 -926 1188
-210 210 -276 270 -447 408 -367 293 -708 504 -1153 711 -421 196 -928 352
-1380 425 -38 6 -95 15 -125 20 -54 8 -171 20 -385 40 -128 12 -703 11 -820
-1z m902 -154 c427 -45 796 -126 1221 -269 812 -275 1456 -668 2049 -1249 156
-154 361 -378 371 -408 2 -5 -6 -9 -17 -9 -35 0 -24 -13 54 -63 82 -53 135
-113 289 -331 357 -502 632 -1068 801 -1641 90 -306 130 -505 164 -822 69
-622 49 -1207 -60 -1773 -99 -508 -241 -926 -474 -1390 -105 -209 -123 -242
-259 -464 -120 -197 -134 -217 -264 -391 -447 -596 -945 -1049 -1562 -1420
-166 -100 -468 -250 -670 -334 -96 -40 -200 -83 -230 -96 -108 -47 -329 -124
-482 -169 -1142 -337 -2445 -246 -3522 246 -359 164 -705 350 -931 501 -494
331 -965 781 -1330 1272 -215 290 -486 756 -641 1102 -240 538 -383 1102 -446
1753 -18 196 -15 804 5 985 46 401 63 501 138 792 162 627 460 1265 832 1778
131 181 274 358 316 390 21 17 72 75 114 130 280 371 791 817 1242 1084 753
447 1657 747 2416 801 79 6 167 12 194 14 102 8 538 -5 682 -19z"/>
<path d="M5960 11890 c-234 -20 -381 -50 -525 -107 -193 -77 -374 -184 -575
-341 -77 -61 -112 -82 -134 -82 -35 0 -96 -20 -96 -32 0 -4 14 -8 30 -8 35 0
217 -64 400 -141 169 -71 531 -255 715 -363 113 -67 396 -245 434 -273 2 -2
-30 -150 -72 -331 -120 -513 -204 -957 -253 -1331 l-17 -133 -51 -31 c-28 -17
-130 -84 -226 -147 -497 -330 -874 -617 -1292 -983 l-166 -147 -159 69 c-208
90 -423 191 -635 297 -226 113 -680 353 -695 368 -7 7 -16 80 -23 191 -26 394
27 862 155 1364 25 96 42 177 40 180 -3 2 -63 -1 -133 -7 -204 -18 -441 -85
-616 -175 -53 -26 -78 -49 -146 -131 -396 -481 -713 -1099 -884 -1725 -44
-158 -70 -296 -92 -483 l-18 -147 28 -83 c56 -165 130 -356 198 -513 39 -88
87 -203 108 -256 58 -148 69 -161 50 -58 -5 30 -14 110 -19 179 l-9 125 40 75
c22 41 87 145 143 230 270 406 652 807 1025 1074 l83 60 91 -48 c559 -292
1048 -531 1335 -651 l106 -45 44 -183 c101 -423 226 -860 385 -1343 l105 -317
-187 -226 c-317 -382 -563 -685 -760 -936 l-189 -240 -42 2 c-54 2 -422 94
-716 178 -243 70 -651 204 -848 278 -64 25 -119 42 -122 37 -11 -18 -35 -208
-46 -365 -14 -205 -6 -393 25 -611 26 -179 27 -182 151 -374 321 -498 904
-1060 1385 -1337 128 -73 172 -96 271 -139 l77 -32 131 43 c72 24 190 69 263
100 137 58 472 227 565 284 l53 33 -70 76 c-333 368 -681 953 -932 1567 -55
135 -67 174 -58 188 10 16 168 218 369 472 52 66 138 172 191 235 52 64 133
162 180 220 47 57 112 136 146 174 33 39 86 103 119 141 32 39 73 87 92 108
l33 37 213 -35 c466 -77 762 -104 1212 -112 307 -5 682 6 781 23 30 6 43 -7
415 -413 211 -231 526 -573 699 -762 173 -189 321 -353 329 -366 18 -28 11
-44 -139 -345 -234 -468 -469 -853 -757 -1238 -80 -107 -143 -195 -141 -197
14 -13 351 -175 454 -218 262 -110 620 -216 684 -203 64 12 293 111 430 185
303 163 572 350 860 597 143 122 401 379 502 499 66 79 252 320 271 352 12 19
46 271 58 423 13 166 6 406 -16 560 -14 98 -54 312 -59 318 -2 1 -47 -14 -102
-34 -583 -213 -1629 -560 -1882 -625 l-54 -13 -62 64 c-34 36 -180 196 -326
355 -145 160 -375 411 -510 559 -135 148 -311 341 -392 429 -114 123 -145 163
-139 176 5 9 32 72 61 141 160 381 672 1503 797 1749 l28 54 170 59 c170 60
322 113 785 275 305 106 529 191 733 277 87 37 163 63 170 59 76 -45 350 -253
477 -362 378 -323 640 -606 850 -918 l89 -132 41 66 c99 156 204 380 265 562
25 77 27 92 21 182 -45 649 -437 1566 -945 2208 -72 91 -77 95 -169 138 -122
57 -271 107 -397 132 -116 23 -309 45 -330 38 -11 -5 -11 -14 1 -59 21 -78 72
-347 89 -468 46 -336 40 -774 -16 -1110 -17 -103 -22 -118 -49 -142 -16 -15
-30 -32 -30 -38 0 -32 -594 -257 -965 -365 -82 -24 -222 -64 -310 -90 -88 -25
-221 -66 -295 -90 -74 -24 -167 -54 -206 -66 l-70 -22 -110 76 c-377 262 -765
526 -1227 835 l-527 353 5 37 c3 20 17 118 30 217 59 417 128 776 239 1235 24
102 50 213 57 248 l12 63 76 45 c110 66 593 303 751 369 236 99 544 213 710
264 41 13 79 27 83 31 19 17 -294 276 -451 373 -277 171 -457 233 -797 273
-154 18 -587 26 -735 14z m4223 -2635 c129 -303 213 -615 242 -890 11 -109 12
-111 83 -167 103 -80 266 -242 355 -353 143 -177 241 -343 318 -535 41 -104
102 -300 95 -307 -2 -2 -27 36 -56 84 -213 354 -547 701 -939 974 -73 51 -90
68 -87 84 3 11 10 78 17 148 16 180 7 513 -21 702 -19 131 -61 353 -76 403
-13 43 17 -21 69 -143z m-2866 -2357 c-239 -470 -602 -1165 -617 -1182 -12
-12 -235 -52 -406 -73 -205 -24 -673 -24 -904 1 -250 26 -573 76 -587 90 -3 3
27 6 68 6 259 1 706 73 992 161 440 135 735 314 1068 648 190 191 353 391 504
619 26 39 50 72 52 72 2 0 -74 -154 -170 -342z m-6047 -343 c0 -19 -4 -35 -10
-35 -11 0 -14 53 -3 63 11 12 13 8 13 -28z m8935 -2443 c-61 -54 -805 -614
-995 -750 -85 -61 -163 -119 -172 -129 -9 -10 -54 -67 -99 -128 -306 -411
-678 -779 -1024 -1014 -201 -137 -201 -136 -68 5 331 352 570 692 803 1142
l85 165 190 81 c299 129 895 421 1180 580 99 55 118 64 100 48z"/>
</g>
</svg>
