<?xml version="1.0" standalone="no"?>
<!DOCTYPE svg PUBLIC "-//W3C//DTD SVG 20010904//EN"
 "http://www.w3.org/TR/2001/REC-SVG-20010904/DTD/svg10.dtd">
<svg version="1.0" xmlns="http://www.w3.org/2000/svg"
 width="740.000000pt" height="423.000000pt" viewBox="0 0 740.000000 423.000000"
 preserveAspectRatio="xMidYMid meet">

<g transform="translate(0.000000,423.000000) scale(0.100000,-0.100000)"
fill="#000000" stroke="none">
<path d="M0 2115 l0 -2115 3700 0 3700 0 0 2115 0 2115 -3700 0 -3700 0 0
-2115z m2974 1655 c49 -11 91 -22 93 -24 3 -2 -3 -16 -13 -30 -9 -15 -15 -28
-13 -31 2 -2 34 4 70 12 62 15 139 12 139 -5 0 -4 -15 -16 -32 -26 -50 -28
-118 -98 -118 -120 0 -11 8 -28 17 -39 17 -18 17 -19 -1 -33 -18 -13 -18 -18
-6 -86 12 -69 12 -73 -8 -89 -34 -27 -56 -93 -43 -129 5 -17 8 -37 5 -44 -5
-12 -133 -77 -180 -90 -12 -4 -26 -18 -32 -31 -7 -16 -32 -34 -67 -49 -38 -17
-55 -31 -55 -44 0 -10 -9 -46 -21 -80 -19 -55 -24 -62 -47 -62 -50 1 -81 24
-118 85 -70 118 -81 174 -41 210 13 11 17 16 10 11 -16 -11 -45 0 -42 16 2 7
-2 30 -9 52 -6 21 -9 50 -7 65 3 16 -7 50 -28 91 -36 73 -44 77 -149 79 -66 1
-69 2 -113 44 -25 24 -45 48 -45 54 0 6 30 23 68 38 86 34 101 46 73 57 -12 4
-21 11 -21 17 0 5 31 27 69 50 71 43 216 87 252 76 11 -3 29 -7 42 -10 20 -5
20 -5 -3 9 l-25 15 40 16 c27 12 54 15 87 12 33 -4 50 -2 58 8 23 28 101 30
214 5z m-719 -50 c49 -6 91 -13 94 -16 7 -6 -47 -54 -104 -92 -22 -14 -55 -39
-73 -54 -18 -15 -39 -28 -47 -28 -8 0 -15 -9 -15 -20 0 -13 -12 -28 -30 -38
-36 -21 -43 -37 -27 -63 10 -17 9 -22 -7 -35 -11 -8 -26 -14 -34 -14 -9 0 -7
-6 8 -18 l21 -17 -25 -24 c-21 -20 -38 -24 -113 -28 -75 -5 -92 -3 -106 11 -9
10 -17 13 -17 8 0 -18 -33 -23 -55 -8 -14 9 -27 11 -36 5 -22 -14 -49 -11 -49
6 0 8 -9 15 -20 15 -24 0 -63 37 -54 51 3 6 16 8 29 5 12 -3 37 -1 54 5 38 14
61 -1 61 -39 0 -20 3 -23 12 -14 7 7 20 12 30 12 10 0 18 -5 18 -12 0 -9 3 -9
11 -1 17 17 2 33 -31 33 -35 0 -50 32 -25 56 16 16 104 39 113 29 2 -2 2 -11
-1 -20 -5 -10 -20 -15 -53 -15 -58 0 -55 -7 8 -13 36 -4 50 -1 62 12 9 10 13
21 10 24 -4 4 -2 12 4 19 8 11 3 13 -29 10 -26 -3 -48 2 -66 13 -26 17 -26 18
-7 32 18 14 18 15 -4 8 -29 -8 -63 19 -55 43 16 44 46 74 69 69 16 -3 24 0 24
9 0 11 78 41 125 48 7 1 19 7 26 13 8 6 32 14 54 18 22 4 47 11 55 16 20 11
87 11 195 -1z m2285 -35 c0 -8 -10 -17 -23 -20 -13 -4 -24 -13 -24 -21 0 -8 3
-13 6 -11 52 27 63 30 70 19 5 -8 14 -7 36 4 20 10 31 12 39 4 17 -18 -18 -37
-82 -45 -31 -4 -63 -11 -69 -17 -16 -13 -43 -3 -43 17 0 8 -4 15 -10 15 -5 0
-9 -5 -7 -12 3 -18 -32 -22 -61 -6 -20 10 -26 10 -29 1 -5 -15 -53 -18 -53 -3
0 6 -11 10 -25 10 -35 0 -31 16 6 29 45 16 105 14 123 -4 13 -14 19 -11 53 20
40 37 93 48 93 20z m585 -45 c4 -6 16 -8 26 -5 25 8 70 -20 63 -39 -3 -9 4
-16 21 -20 21 -5 26 -12 22 -26 -6 -22 8 -37 18 -20 8 13 45 13 45 -1 0 -6 10
-19 23 -30 29 -25 11 -37 -52 -37 -55 1 -66 5 -51 23 9 10 2 15 -29 20 -22 4
-51 15 -63 25 -13 10 -32 19 -42 21 -30 6 -30 25 1 54 29 28 27 29 -19 6 -22
-11 -30 -12 -43 -1 -21 17 -19 28 8 33 42 8 66 7 72 -3z m-3445 -105 c21 -26
-3 -42 -37 -26 -27 12 -27 13 -8 27 24 18 30 18 45 -1z m-6 -87 c6 -9 7 -20 3
-24 -10 -10 -99 17 -120 37 -18 16 -18 17 4 33 21 14 26 14 62 -7 22 -12 45
-30 51 -39z m50 27 c42 -18 45 -31 11 -47 -29 -13 -40 -6 -50 35 -8 32 -8 32
39 12z m-224 -25 c0 -26 -32 -70 -54 -76 -34 -8 -39 -30 -11 -48 32 -21 52
-21 35 0 -11 12 -10 18 4 32 16 16 18 16 32 -3 8 -11 24 -19 35 -17 10 2 22
-4 25 -12 3 -9 12 -16 20 -16 8 0 14 -6 14 -14 0 -9 -18 -16 -52 -20 -29 -4
-71 -15 -93 -25 -37 -16 -63 -17 -75 -2 -10 12 -50 31 -65 31 -8 0 -15 5 -15
10 0 6 -10 8 -24 4 -41 -10 -37 12 10 55 34 32 52 41 72 39 15 -2 26 -8 25
-14 -1 -7 6 -10 17 -7 28 7 25 20 -5 27 -15 4 -23 11 -19 17 3 6 14 9 24 6 13
-3 17 0 13 9 -3 8 4 18 18 23 33 13 69 13 69 1z m3195 -39 c-6 -5 -35 -19 -65
-31 -35 -13 -74 -40 -107 -73 -45 -43 -53 -57 -53 -87 1 -35 19 -70 37 -70 6
0 16 -6 23 -14 6 -8 17 -13 25 -10 15 6 86 -28 104 -50 27 -32 29 -14 5 35
-23 45 -24 52 -11 67 9 9 19 30 23 45 3 16 13 31 20 34 8 3 14 11 14 19 0 25
29 13 47 -20 7 -12 8 -29 2 -43 -4 -12 -7 -47 -5 -78 3 -61 18 -87 38 -67 9 9
8 12 -4 12 -14 0 -15 10 -11 63 3 34 11 71 17 82 10 18 11 17 14 -13 3 -31 5
-32 17 -16 11 16 18 17 61 7 46 -11 47 -10 27 5 -12 10 -23 28 -25 42 -3 24
-1 25 65 28 37 2 67 5 67 7 0 2 -4 14 -9 28 -5 13 -6 29 -1 36 4 8 54 19 121
28 100 12 116 17 132 39 12 16 29 24 48 24 30 0 72 -32 61 -46 -4 -5 0 -3 10
4 27 21 108 -9 122 -45 8 -21 -8 -38 -65 -70 -27 -14 -49 -29 -49 -32 0 -3 43
-7 95 -8 98 -2 128 -9 104 -24 -9 -6 3 -9 34 -9 26 0 47 5 47 10 0 6 21 10 48
10 56 0 74 -20 65 -73 -6 -40 13 -60 32 -34 10 15 20 16 65 7 69 -13 83 -13
77 3 -7 18 22 47 41 40 10 -4 13 -2 8 5 -4 7 -13 12 -21 12 -12 0 -25 21 -25
41 0 17 31 9 57 -15 14 -14 23 -31 20 -39 -4 -10 10 -19 48 -31 29 -9 64 -28
79 -42 19 -20 33 -25 52 -21 39 7 114 -21 114 -43 0 -23 19 -30 85 -30 34 0
57 -5 65 -15 18 -21 29 -19 23 5 -6 23 -5 23 70 9 40 -7 84 -27 144 -65 48
-29 92 -54 97 -54 6 0 25 -11 41 -24 32 -26 32 -24 -20 -41 -26 -8 -16 -21 26
-34 26 -8 38 -16 32 -22 -13 -13 -73 1 -73 17 0 7 -10 16 -22 20 -13 3 -30 12
-38 19 -31 27 -107 16 -94 -14 19 -46 17 -51 -17 -51 -19 0 -56 -13 -84 -28
-39 -21 -61 -27 -102 -25 -39 2 -57 -2 -75 -17 -17 -14 -20 -22 -11 -28 16
-10 1 -70 -26 -101 -10 -12 -24 -35 -31 -51 -27 -66 -68 -30 -77 69 -5 56 -4
60 23 77 45 28 124 96 124 106 0 5 -11 1 -25 -8 -22 -15 -29 -13 -27 7 2 12
-69 -9 -88 -26 -10 -9 -16 -23 -13 -31 4 -10 -4 -14 -31 -14 -20 0 -36 4 -36
8 0 5 -32 9 -72 10 l-71 1 -54 -49 c-30 -28 -59 -50 -64 -50 -13 0 -11 -12 6
-34 14 -19 16 -19 28 -2 12 16 14 16 34 -4 26 -24 37 -26 30 -5 -4 8 -2 17 3
20 12 8 33 -43 25 -62 -3 -8 -1 -22 4 -31 4 -9 11 -32 14 -50 6 -27 4 -32 -11
-30 -18 3 -19 -8 -6 -49 5 -20 3 -23 -21 -23 l-28 0 6 78 c4 62 4 70 -5 42
-22 -75 -54 -133 -96 -172 -32 -29 -47 -37 -55 -29 -12 12 -47 -13 -47 -34 0
-7 -9 -20 -20 -30 -17 -16 -18 -20 -5 -38 28 -40 12 -107 -25 -107 -16 0 -20
7 -21 33 -1 17 -1 36 0 40 1 4 -6 15 -14 23 -8 9 -13 20 -10 25 4 5 -4 9 -17
9 -13 0 -29 5 -35 11 -7 7 -20 5 -42 -9 -27 -16 -29 -21 -17 -31 8 -7 24 -10
35 -6 29 9 36 -13 11 -40 -20 -22 -21 -25 -6 -53 9 -17 13 -38 10 -46 -4 -9
-1 -23 5 -30 25 -30 -62 -154 -116 -169 -10 -3 -31 -8 -46 -11 -16 -4 -27 -12
-24 -19 7 -20 -12 -47 -33 -47 -24 0 -26 17 -3 42 14 16 14 18 1 18 -9 0 -26
-8 -39 -19 l-23 -19 32 -36 c45 -51 44 -93 -3 -135 -42 -36 -55 -39 -55 -11 0
12 -13 28 -32 40 l-33 20 -11 -22 c-13 -24 2 -62 36 -93 22 -20 43 -85 35
-107 -3 -8 6 -26 21 -41 17 -17 25 -34 21 -46 -4 -15 2 -21 27 -26 17 -4 41
-7 52 -6 12 1 35 -10 50 -24 l29 -26 -73 5 c-102 9 -167 52 -207 138 -9 20
-32 52 -51 70 -59 58 -33 83 29 28 19 -16 37 -30 40 -30 12 0 -15 58 -34 76
-14 12 -19 30 -19 68 0 78 -7 95 -38 93 -23 -2 -28 3 -32 29 -3 16 -15 42 -26
57 -31 39 -73 28 -131 -34 -25 -27 -53 -51 -63 -54 -29 -9 -33 -91 -7 -127 17
-22 19 -33 11 -46 -18 -28 -39 -20 -45 18 -4 19 -7 30 -8 24 0 -7 -8 -14 -16
-17 -21 -9 -92 125 -101 190 -3 29 -10 50 -15 47 -12 -7 -49 14 -49 28 0 6
-12 22 -26 35 -22 20 -33 23 -65 18 -22 -4 -54 -2 -74 5 -38 13 -74 8 -40 -5
11 -5 28 -17 38 -27 18 -19 18 -20 -5 -54 -31 -46 -149 -116 -245 -144 -82
-25 -38 -48 47 -25 30 8 58 11 63 6 19 -19 -53 -141 -125 -212 -68 -68 -96
-117 -90 -157 2 -18 8 -35 13 -38 5 -3 9 -30 9 -60 0 -56 -22 -94 -54 -94 -27
0 -46 -40 -39 -86 5 -37 3 -44 -21 -59 -14 -10 -26 -26 -26 -36 0 -23 -42 -85
-81 -121 -21 -19 -49 -31 -94 -40 -59 -10 -67 -10 -85 7 -11 10 -20 27 -20 37
0 22 -26 75 -46 96 -8 7 -14 29 -14 49 0 19 -11 57 -25 85 -29 57 -31 94 -10
145 14 33 14 43 -1 102 -9 36 -27 80 -41 97 -20 27 -24 42 -21 81 3 45 1 48
-22 51 -14 2 -35 13 -48 25 -21 19 -26 20 -65 8 -23 -8 -58 -15 -77 -16 -19
-2 -47 -6 -61 -10 -43 -11 -104 37 -160 124 -45 71 -47 76 -33 102 10 21 11
35 4 54 -6 15 -10 35 -10 45 0 28 69 138 101 161 20 14 29 29 29 49 0 20 9 36
29 52 43 34 46 78 6 78 -25 0 -25 0 -23 96 l2 97 73 -6 73 -5 0 30 c0 31 -34
78 -57 78 -7 0 -13 9 -13 20 0 15 7 20 25 20 14 0 25 5 25 10 0 6 8 10 18 10
9 0 26 7 37 16 19 14 17 14 -25 9 -25 -4 -60 -11 -79 -16 -42 -10 -50 -5 -28
19 13 14 14 21 5 30 -8 8 -8 15 1 25 6 8 9 22 5 31 -4 11 -1 16 10 16 22 0 20
17 -4 30 -11 6 -20 17 -20 25 0 8 -7 15 -15 15 -12 0 -13 4 -5 19 5 11 10 28
10 39 0 21 18 32 51 32 13 0 17 -5 12 -17 -4 -11 -3 -14 5 -9 16 10 26 -18 14
-40 -7 -13 0 -25 31 -56 24 -23 43 -51 44 -66 5 -41 11 -52 27 -52 9 0 16 11
18 27 2 22 11 31 44 43 35 13 40 18 33 35 -4 11 -8 34 -8 52 -1 25 -6 32 -23
35 -21 3 -23 9 -26 65 -3 59 -2 63 25 77 39 20 97 83 121 131 30 60 89 123
136 147 22 11 49 27 58 35 20 17 85 10 115 -13 16 -12 16 -15 3 -24 -11 -8 -7
-10 20 -8 25 2 35 -1 35 -12 0 -8 11 -17 25 -19 14 -1 36 -11 50 -21 14 -10
34 -19 45 -21 15 -3 20 -12 20 -34 0 -42 -40 -61 -87 -42 l-33 14 4 -41 c3
-37 14 -55 33 -56 3 0 4 9 1 20 -4 16 0 20 17 20 12 0 31 11 42 25 11 14 30
25 42 25 33 0 39 11 19 33 -17 18 -17 19 2 33 10 8 23 14 27 14 16 0 21 -32 7
-41 -11 -7 -11 -9 3 -9 10 0 39 14 65 30 38 25 55 30 83 25 19 -3 49 -1 67 4
22 6 33 6 36 -2 2 -6 9 -7 15 -3 20 12 -45 63 -88 70 -20 3 -46 16 -59 30
l-23 24 25 38 c13 22 27 51 30 65 8 33 78 82 147 103 30 9 66 23 80 30 22 13
27 13 40 0 9 -9 11 -17 5 -23z m-3115 -12 c10 -18 9 -20 -12 -17 -12 2 -24 11
-26 21 -5 24 25 22 38 -4z m4380 -79 c9 -5 19 -5 26 1 9 7 24 3 51 -14 21 -13
43 -25 48 -26 86 -12 100 -18 84 -37 -17 -20 -62 -17 -87 6 -14 13 -23 16 -28
9 -4 -6 -20 -8 -40 -4 -19 3 -43 1 -54 -5 -16 -8 -24 -6 -40 10 -24 24 -25 34
-4 54 18 18 23 19 44 6z m-4145 -82 c-4 -13 -15 -30 -26 -40 -24 -20 -24 -30
0 -69 11 -17 17 -38 14 -45 -3 -8 1 -14 11 -14 9 0 16 -6 16 -12 0 -9 3 -9 9
1 15 23 44 -6 37 -35 -9 -36 11 -38 23 -2 16 47 14 56 -18 63 -48 10 -56 27
-42 90 7 30 19 62 27 70 18 17 90 20 99 5 5 -8 11 -8 19 0 18 15 72 -6 123
-46 23 -19 48 -34 55 -34 23 0 98 -70 98 -90 0 -10 -8 -20 -17 -23 -15 -3 -14
-6 7 -15 14 -5 42 -17 62 -26 36 -15 36 -16 26 -53 -15 -58 -26 -63 -59 -23
-23 28 -31 32 -41 21 -11 -10 -5 -19 26 -46 37 -31 39 -35 28 -60 -11 -24 -15
-25 -30 -14 -15 13 -16 12 -3 -4 8 -9 11 -20 8 -24 -9 -9 -112 30 -110 42 3
17 -30 29 -74 26 -37 -2 -43 0 -43 17 0 16 9 22 43 27 85 14 89 49 15 122 -42
41 -59 52 -81 49 -36 -4 -41 -10 -25 -35 11 -18 11 -23 -1 -30 -10 -6 -10 -13
-2 -28 13 -26 -12 -52 -53 -55 -25 -2 -26 -4 -10 -13 37 -21 89 -76 77 -82 -7
-2 -13 -11 -13 -18 0 -16 -35 -29 -50 -20 -14 9 7 35 29 36 9 0 11 3 4 5 -7 3
-21 1 -32 -5 -23 -13 -51 -5 -51 14 0 16 -23 6 -78 -33 -35 -25 -46 -42 -56
-84 -5 -21 -3 -28 9 -28 8 0 22 -11 31 -25 9 -14 25 -25 36 -25 11 0 37 -9 57
-19 20 -11 48 -22 62 -25 21 -5 28 -14 33 -41 4 -21 13 -35 21 -35 8 0 15 -4
15 -10 0 -5 4 -10 9 -10 5 0 5 15 1 36 -9 41 -4 64 15 64 20 0 26 42 10 73 -8
16 -12 33 -10 38 10 15 -6 58 -20 53 -7 -3 -15 2 -19 11 -4 11 2 19 20 25 41
16 91 11 139 -12 36 -19 45 -28 45 -50 0 -32 32 -55 47 -35 6 6 13 20 16 30 4
9 13 17 20 17 16 0 67 -90 60 -107 -2 -7 13 -23 34 -37 76 -50 76 -51 70 -104
-5 -42 -3 -49 16 -57 25 -11 46 -70 30 -86 -6 -6 -20 -4 -39 6 -16 8 -41 15
-56 15 -39 0 -42 15 -14 57 29 42 27 52 -6 29 -12 -9 -34 -17 -48 -17 -18 -1
-20 -3 -7 -6 23 -6 16 -29 -9 -26 -19 2 -34 -13 -34 -33 0 -16 53 -39 58 -25
5 15 32 14 32 -1 -1 -22 -33 -54 -77 -76 -45 -22 -58 -20 -42 9 9 17 6 17 -26
-2 -23 -14 -38 -31 -42 -50 -3 -18 -15 -32 -34 -39 -16 -7 -29 -17 -29 -22 0
-5 -9 -28 -20 -50 -11 -23 -20 -51 -20 -62 -1 -13 -18 -34 -45 -54 -49 -36
-54 -54 -33 -124 8 -29 8 -42 0 -50 -17 -17 -40 7 -48 48 -3 19 -11 37 -16 40
-19 12 -79 8 -88 -6 -7 -12 -17 -12 -49 -4 -40 11 -58 6 -93 -24 -13 -11 -15
-18 -7 -28 7 -9 7 -19 0 -33 -18 -32 -13 -59 17 -90 21 -24 33 -29 55 -24 18
3 29 14 33 29 4 15 16 25 36 29 40 9 52 -4 37 -41 -22 -54 -19 -63 25 -72 41
-8 41 -8 41 -54 0 -26 5 -52 10 -57 6 -5 30 -11 55 -13 36 -2 49 1 65 18 34
37 71 43 167 24 78 -15 91 -20 127 -57 26 -26 54 -43 77 -47 24 -5 51 -23 85
-58 27 -27 49 -54 49 -59 0 -4 33 -18 73 -30 39 -12 84 -30 99 -40 14 -11 33
-19 41 -19 9 0 17 -14 22 -36 7 -37 -4 -57 -49 -96 -15 -12 -21 -32 -24 -83
-4 -58 -7 -67 -28 -75 -12 -5 -28 -18 -34 -29 -6 -12 -28 -30 -49 -41 -31 -15
-42 -29 -54 -65 -15 -42 -116 -168 -132 -165 -4 1 -13 -9 -19 -22 -7 -14 -22
-24 -39 -26 -41 -5 -69 -36 -61 -68 6 -23 4 -25 -13 -20 -17 5 -23 -1 -38 -39
-10 -26 -14 -56 -11 -71 4 -16 2 -26 -7 -30 -8 -3 -23 -18 -35 -33 -18 -24
-19 -34 -11 -64 8 -29 17 -38 54 -53 52 -19 51 -29 -5 -38 -69 -11 -146 42
-173 118 -17 50 -8 133 43 391 22 110 40 221 40 247 0 43 -3 49 -51 88 -30 26
-62 65 -79 99 -16 31 -38 70 -49 86 -12 17 -21 38 -21 48 0 20 33 88 61 127
16 21 17 31 8 63 -9 35 -12 37 -27 24 -15 -14 -22 -13 -60 7 -24 12 -49 33
-55 46 -7 15 -37 37 -74 55 -34 17 -68 36 -75 43 -6 6 -22 12 -33 12 -32 0
-136 38 -157 57 -10 9 -18 26 -18 37 0 12 -27 49 -60 84 -33 35 -60 69 -60 76
0 8 -7 20 -17 27 -15 13 -15 12 1 -18 9 -18 28 -49 41 -69 18 -26 22 -41 15
-48 -15 -15 -90 74 -115 138 -16 38 -29 55 -53 65 -20 9 -35 24 -39 40 -3 14
-17 45 -31 69 -23 40 -24 49 -17 128 7 88 -4 144 -29 144 -18 0 -59 47 -52 58
7 12 -34 81 -49 82 -5 0 -4 -5 3 -12 14 -14 16 -58 2 -58 -5 0 -17 11 -26 26
-12 18 -14 28 -6 36 19 19 -71 110 -131 130 -28 10 -52 16 -55 13 -2 -2 -16 2
-31 9 -24 13 -29 11 -68 -24 -24 -21 -43 -42 -43 -48 0 -5 -11 -17 -24 -25
-17 -12 -26 -13 -35 -4 -8 8 -17 5 -33 -11 -22 -20 -128 -72 -148 -72 -25 0
-5 20 47 48 32 17 64 40 71 51 11 20 10 21 -27 21 -22 0 -41 5 -43 11 -2 6
-20 12 -40 14 -49 4 -68 16 -43 25 12 4 20 16 20 31 0 18 10 29 41 45 47 24
50 49 3 32 -36 -12 -59 -5 -59 20 0 28 25 45 54 38 14 -3 28 -2 31 4 3 5 -2
10 -12 10 -10 0 -26 12 -37 26 -18 26 -18 26 15 61 50 51 115 81 167 75 23 -2
45 -8 48 -13 3 -5 49 -9 103 -9 61 0 114 -6 140 -15 37 -13 43 -13 47 0 4 8
15 15 25 15 11 0 31 7 44 16 14 9 31 14 39 11 8 -3 17 1 20 10 6 14 9 14 27
-2 13 -13 37 -19 72 -20 29 0 66 -5 82 -10 28 -8 29 -7 16 9 -12 14 -12 19 -2
26 10 6 8 10 -9 15 -15 5 -19 10 -12 17 7 7 7 14 0 22 -9 9 -17 6 -34 -11 -28
-28 -41 -28 -73 -4 -24 19 -24 19 -6 57 13 29 15 42 7 55 -9 15 -8 19 8 24 26
8 82 7 131 -4 3 0 19 -12 35 -26 16 -14 34 -23 41 -20 7 2 15 0 19 -6 3 -5 13
-9 22 -7 10 1 23 -1 31 -6 10 -6 12 -4 7 11 -7 23 28 66 52 61 19 -4 29 -38
14 -47 -20 -12 10 -77 45 -100 32 -21 43 -41 23 -41 -5 0 -10 -6 -10 -14 0
-18 -31 -29 -55 -20 -12 5 -16 4 -11 -4 11 -18 97 -27 107 -11 5 9 3 17 -7 22
-14 8 -13 12 6 32 12 13 28 21 36 18 9 -3 13 3 12 24 -1 15 2 36 6 46 8 16 7
17 -21 0 -29 -16 -31 -16 -67 12 -28 22 -35 32 -30 49 9 30 17 36 51 40 36 5
58 -7 50 -27 -3 -9 0 -20 6 -26 10 -7 13 -3 15 16 3 32 28 52 65 53 25 0 28
-3 22 -22z m2555 -138 c0 -16 -41 -33 -52 -22 -6 6 -7 15 -4 21 9 14 56 15 56
1z m2363 -49 c4 -1 7 -7 7 -15 0 -19 -71 -28 -89 -11 -7 7 -11 17 -8 23 5 8
20 8 90 3z m-4623 -51 c0 -36 -24 -41 -41 -9 -9 17 -8 23 2 30 26 16 39 9 39
-21z m1114 -11 c17 -15 -12 -57 -53 -79 -42 -21 -141 -28 -141 -10 0 6 -7 10
-16 10 -10 0 -14 6 -10 15 4 10 -1 15 -14 15 -21 0 -27 15 -10 25 6 4 8 10 5
15 -8 13 13 22 35 15 11 -4 20 -13 20 -21 0 -19 7 -18 38 5 15 10 36 21 47 24
25 7 87 -2 99 -14z m89 -331 c28 -21 12 -85 -27 -109 -44 -27 -70 -25 -61 4 4
12 6 31 6 42 0 20 42 75 57 75 5 0 16 -6 25 -12z m2712 -339 c4 -5 18 -14 31
-19 13 -5 24 -16 24 -24 0 -17 -54 -40 -76 -32 -13 5 -14 3 -6 -6 9 -11 9 -45
-1 -138 -1 -18 -10 -26 -32 -31 -38 -8 -90 -35 -133 -66 -35 -26 -47 -25 -55
7 -7 26 56 90 89 90 14 0 25 8 29 20 5 15 12 19 25 15 27 -8 43 28 37 82 -4
34 -1 46 13 56 9 6 20 22 24 35 8 24 21 29 31 11z m-375 -468 c0 -16 -7 -34
-15 -41 -12 -10 -17 -7 -27 15 -11 24 -10 29 7 41 28 20 35 17 35 -15z m-3638
-20 c13 -5 36 -28 51 -52 22 -35 38 -47 75 -59 29 -9 48 -22 50 -32 5 -26 -91
-23 -121 4 l-22 20 23 -5 c36 -8 21 16 -16 25 -24 6 -32 14 -32 31 0 23 -50
54 -69 43 -5 -4 -12 -2 -16 3 -6 10 21 30 42 31 6 0 22 -4 35 -9z m3648 -104
c0 -13 -5 -28 -12 -35 -9 -9 -7 -13 8 -18 31 -12 67 -52 61 -68 -4 -9 -2 -18
3 -21 14 -9 12 -59 -2 -73 -18 -18 -34 -15 -46 11 -6 12 -11 16 -11 10 -1 -7
-6 -13 -12 -13 -7 0 -9 9 -6 21 3 12 -1 32 -9 45 -9 12 -14 31 -12 42 2 10 -3
26 -10 35 -9 10 -11 28 -6 51 5 29 11 36 30 36 18 0 24 -5 24 -23z m-3632 -14
c2 -8 -5 -13 -17 -13 -12 0 -21 6 -21 16 0 18 31 15 38 -3z m206 -49 c9 -3 16
-10 16 -16 0 -14 -43 -5 -48 10 -4 13 7 15 32 6z m3376 -61 c0 -20 -28 -53
-46 -53 -9 0 -6 11 9 35 24 38 37 44 37 18z m-26 -82 c15 -16 15 -22 4 -40
-10 -17 -10 -25 0 -41 10 -17 10 -21 -1 -26 -8 -3 -20 -23 -27 -45 -13 -39
-14 -40 -54 -35 -23 2 -49 5 -58 5 -10 1 -18 7 -18 15 0 8 -5 16 -11 18 -14 5
-18 39 -8 60 5 10 15 15 22 12 8 -3 36 17 63 44 56 56 65 59 88 33z m186 -101
c0 -43 -16 -53 -29 -18 -5 14 -10 17 -15 10 -4 -7 -25 -12 -46 -12 -21 0 -42
-5 -45 -11 -5 -7 5 -8 29 -4 36 7 51 -7 21 -19 -17 -6 -20 -37 -5 -52 18 -18
-16 -40 -35 -24 -13 10 -15 9 -15 -9 0 -19 4 -20 55 -17 62 5 68 -3 26 -33
-35 -25 -41 -26 -41 -6 0 9 -9 15 -25 15 -18 0 -23 -4 -19 -15 7 -18 0 -19
-29 -3 -12 7 -31 13 -41 13 -11 0 -21 6 -23 13 -3 8 7 12 29 12 29 0 34 4 33
23 0 12 -4 27 -8 34 -4 7 -2 25 6 40 8 15 12 33 10 39 -7 19 27 38 65 36 20
-1 48 5 62 13 37 21 40 19 40 -25z m98 -34 c17 -23 20 -23 35 -9 35 35 134
-10 217 -99 58 -63 51 -72 -23 -32 -46 24 -50 25 -68 9 -16 -16 -23 -16 -64
-4 -40 12 -61 29 -35 29 27 0 5 23 -40 42 -27 11 -50 26 -50 33 0 7 -10 16
-22 19 -23 6 -23 7 -4 21 26 20 31 19 54 -9z m-53 -36 c18 -20 17 -20 -11 -21
-95 -5 -109 -4 -109 11 0 10 10 15 27 15 14 0 30 3 34 8 13 13 41 7 59 -13z
m381 -12 c10 -16 -26 -39 -55 -36 -34 4 -40 28 -7 28 13 0 28 5 31 10 8 13 22
13 31 -2z m46 -15 c19 -17 24 -33 9 -33 -12 0 -41 29 -41 41 0 14 11 11 32 -8z
m-212 -122 c6 -16 18 -32 25 -34 7 -3 18 -26 26 -51 7 -25 18 -46 24 -46 11 0
65 -54 65 -65 0 -4 10 -15 22 -25 29 -23 30 -99 1 -160 -11 -25 -26 -59 -32
-76 -14 -35 -51 -51 -121 -52 -40 -1 -50 4 -87 40 -23 23 -39 46 -36 52 4 6 0
5 -9 -2 -12 -10 -18 -9 -28 3 -25 30 -82 39 -135 20 -28 -9 -53 -21 -57 -28
-5 -9 -47 -24 -123 -43 -11 -3 -29 1 -40 9 -16 12 -17 18 -7 30 10 12 9 23 -4
58 -9 24 -19 68 -23 98 -7 49 -5 56 18 78 14 13 47 31 73 40 30 11 49 25 53
38 3 11 25 35 50 53 38 27 48 31 66 22 17 -10 21 -8 25 8 7 25 75 55 108 46
34 -8 40 -19 24 -43 -7 -11 -10 -21 -8 -23 3 -2 19 -13 37 -25 27 -19 33 -20
43 -8 7 8 10 27 7 42 -5 27 10 73 23 73 4 0 13 -13 20 -29z m-1681 -45 c17
-20 15 -53 -9 -151 -31 -122 -72 -159 -104 -93 -20 38 -20 59 -2 83 10 14 11
25 4 38 -14 27 -3 46 36 62 25 11 36 23 41 45 7 33 16 37 34 16z m2250 -361
c13 -14 34 -25 48 -25 14 0 23 -3 21 -7 -14 -30 -52 -83 -59 -83 -11 0 -69
-63 -85 -92 -5 -10 -23 -25 -38 -34 -26 -13 -30 -13 -41 3 -11 15 -10 22 7 46
11 16 30 33 42 38 12 6 29 23 38 39 12 22 22 28 40 24 12 -2 18 -2 11 2 -8 3
-10 16 -6 35 4 23 0 36 -17 54 -22 23 -22 25 -4 25 10 0 30 -12 43 -25z m-485
-176 c-24 -27 -53 -24 -64 7 -12 32 -4 47 21 39 10 -4 27 -2 36 4 25 14 31
-24 7 -50z"/>
<path d="M2774 3755 c-10 -8 -41 -15 -69 -15 -27 0 -60 -3 -72 -6 -22 -6 -22
-6 5 -29 15 -13 25 -26 22 -29 -3 -3 -30 2 -59 10 -48 15 -60 15 -133 0 -100
-20 -221 -87 -186 -103 l21 -9 -24 -26 c-13 -14 -50 -36 -81 -48 -50 -19 -56
-25 -48 -40 21 -39 63 -57 145 -63 45 -3 88 -9 97 -12 23 -9 80 -133 83 -180
3 -65 4 -68 21 -61 20 8 54 -20 54 -45 0 -10 -10 -26 -23 -36 -38 -29 -39 -59
-7 -127 55 -114 67 -129 111 -142 l41 -12 14 34 c8 19 20 57 26 84 11 48 14
51 60 68 33 11 55 27 67 47 13 21 33 35 72 49 61 21 139 64 139 76 0 5 -4 20
-9 33 -11 29 10 101 40 133 19 20 19 27 9 84 -9 51 -9 66 3 83 12 19 12 24 1
35 -27 25 -16 59 37 109 28 26 60 53 71 59 20 11 20 11 -6 18 -15 4 -32 3 -38
0 -6 -4 -28 -10 -47 -14 -20 -4 -48 -11 -63 -15 -24 -6 -26 -4 -24 19 2 14 8
32 14 39 10 11 -3 17 -66 30 -96 21 -172 22 -198 2z"/>
<path d="M2510 3115 c7 -9 15 -13 17 -11 7 7 -7 26 -19 26 -6 0 -6 -6 2 -15z"/>
<path d="M2084 3701 c5 -7 -8 -11 -41 -11 -65 0 -84 -13 -44 -30 47 -19 27
-31 -26 -15 -42 13 -54 12 -102 -2 -51 -14 -53 -17 -36 -29 25 -19 116 -17
178 3 27 8 51 13 54 10 10 -10 -81 -59 -119 -65 l-39 -5 32 -33 c33 -34 32
-38 -7 -35 -11 1 -26 -4 -33 -12 -9 -12 -7 -16 13 -21 13 -3 32 -3 40 0 20 8
21 -10 1 -26 -9 -7 -25 -10 -41 -6 -16 4 -23 3 -20 -3 4 -5 -4 -17 -16 -26
-22 -15 -18 -15 64 -12 88 3 114 11 89 27 -20 12 5 70 29 70 28 0 45 27 30 45
-10 12 -10 15 3 15 27 0 66 22 61 34 -2 6 16 19 40 29 40 16 85 51 60 46 -20
-3 -44 1 -44 10 0 4 23 11 51 14 50 6 67 12 58 21 -2 2 -57 7 -123 11 -87 6
-117 5 -112 -4z"/>
<path d="M1742 3580 c-10 -17 -10 -20 3 -20 20 0 19 -16 -2 -30 -15 -9 -11
-10 18 -7 20 3 42 2 49 -3 15 -9 5 -30 -16 -30 -8 0 -12 -4 -9 -10 12 -19 73
-11 89 11 19 28 14 37 -39 77 -51 37 -75 40 -93 12z"/>
<path d="M1840 3583 c0 -11 43 -22 57 -15 12 7 8 10 -21 14 -20 2 -36 3 -36 1z"/>
<path d="M1900 3536 c0 -2 8 -10 18 -17 15 -13 16 -12 3 4 -13 16 -21 21 -21
13z"/>
<path d="M1738 3373 c7 -3 16 -2 19 1 4 3 -2 6 -13 5 -11 0 -14 -3 -6 -6z"/>
<path d="M1793 3352 c10 -11 14 -26 10 -40 -5 -22 -3 -22 85 -22 74 0 94 3
113 19 l24 19 -27 7 c-15 4 -48 1 -76 -7 -55 -17 -91 -9 -99 22 -3 12 -14 20
-26 20 -19 0 -19 -1 -4 -18z"/>
<path d="M1846 3353 c-7 -17 23 -25 58 -13 17 5 45 13 61 18 23 7 14 9 -42 8
-45 -1 -74 -5 -77 -13z"/>
<path d="M1664 3330 c1 -40 26 -40 26 0 0 19 -5 30 -14 30 -8 0 -13 -11 -12
-30z"/>
<path d="M1735 3300 c3 -5 10 -10 16 -10 5 0 9 5 9 10 0 6 -7 10 -16 10 -8 0
-12 -4 -9 -10z"/>
<path d="M4538 3633 c7 -3 16 -2 19 1 4 3 -2 6 -13 5 -11 0 -14 -3 -6 -6z"/>
<path d="M5127 3600 c-31 -24 -35 -40 -10 -40 9 0 24 -6 32 -14 9 -8 33 -17
54 -21 32 -6 37 -5 37 12 0 10 -10 23 -22 28 -13 6 -23 19 -23 30 0 28 -35 31
-68 5z"/>
<path d="M5270 3495 c-11 -13 -7 -15 31 -15 40 0 41 1 23 15 -25 19 -39 19
-54 0z"/>
<path d="M1590 3470 c11 -11 26 -20 33 -20 7 0 19 -6 26 -12 11 -11 13 -10 9
1 -2 8 -11 18 -19 21 -8 4 -24 12 -36 18 -32 17 -36 15 -13 -8z"/>
<path d="M1715 3450 c3 -5 8 -10 11 -10 2 0 4 5 4 10 0 6 -5 10 -11 10 -5 0
-7 -4 -4 -10z"/>
<path d="M1435 3400 c-3 -5 1 -10 10 -10 9 0 13 5 10 10 -3 6 -8 10 -10 10 -2
0 -7 -4 -10 -10z"/>
<path d="M1325 3361 c-16 -10 -39 -28 -50 -41 l-20 -23 25 14 c13 8 30 20 36
28 6 8 18 12 27 8 10 -4 17 1 20 14 6 24 0 24 -38 0z"/>
<path d="M1480 3341 c0 -5 6 -14 14 -21 8 -6 12 -18 9 -26 -4 -11 0 -12 18 -6
13 5 25 15 27 23 3 11 1 11 -7 -1 -9 -13 -12 -12 -25 5 -9 11 -16 23 -16 28 0
10 -20 9 -20 -2z"/>
<path d="M1364 3303 c-19 -19 -5 -30 24 -17 9 4 25 6 34 5 12 -2 16 3 12 13
-8 21 -48 20 -70 -1z"/>
<path d="M1460 3280 c0 -5 7 -7 15 -4 8 4 15 8 15 10 0 2 -7 4 -15 4 -8 0 -15
-4 -15 -10z"/>
<path d="M4640 3415 c-14 -8 -49 -22 -78 -31 -59 -18 -122 -66 -122 -94 0 -11
-4 -21 -9 -25 -6 -3 -17 -19 -25 -37 -19 -36 -11 -51 36 -67 27 -10 29 -9 22
7 -4 9 -9 34 -12 54 -4 34 1 42 54 95 44 44 73 63 117 78 31 10 57 23 57 27 0
11 -11 9 -40 -7z"/>
<path d="M5293 3423 c-7 -2 -13 -11 -13 -19 0 -21 -33 -31 -146 -44 -54 -6
-103 -15 -107 -19 -4 -5 -3 -20 4 -35 7 -14 9 -29 5 -34 -4 -4 -38 -9 -74 -12
l-67 -5 29 -27 c38 -37 30 -61 -16 -47 -34 9 -83 12 -60 2 6 -2 10 -9 6 -14
-7 -12 -51 -12 -56 1 -1 5 -4 -10 -5 -35 -1 -38 1 -45 17 -45 22 0 50 -36 50
-65 0 -18 -3 -17 -23 9 -16 20 -26 25 -31 18 -4 -7 -4 -17 -1 -22 6 -10 -52
-70 -68 -70 -15 0 -47 20 -47 30 0 5 12 10 26 12 36 4 52 30 36 60 -15 28 -20
125 -9 156 8 21 6 23 -20 20 -18 -2 -29 -10 -31 -23 -2 -11 -10 -27 -17 -35
-16 -18 -9 -64 11 -81 15 -12 20 -69 6 -69 -5 0 -19 11 -31 24 -37 39 -132 78
-102 43 16 -21 -21 -53 -45 -39 -11 6 -27 7 -42 1 -14 -5 -39 -7 -56 -4 -24 5
-42 -1 -79 -24 -26 -17 -54 -31 -61 -31 -8 0 -16 -7 -20 -15 -3 -9 -18 -15
-36 -15 -23 0 -33 -6 -42 -26 -8 -18 -17 -24 -30 -20 -16 4 -17 2 -7 -11 10
-12 10 -16 -2 -24 -20 -12 -31 -11 -57 7 -17 11 -21 21 -16 40 5 18 0 34 -15
54 -11 16 -21 32 -21 34 0 3 25 -4 55 -15 59 -22 95 -18 95 9 0 17 -61 54
-110 67 -44 11 -110 45 -110 55 0 6 8 10 18 11 12 0 10 3 -7 10 -18 7 -28 6
-41 -6 -26 -24 -43 -20 -29 8 l12 22 -24 -21 c-13 -12 -43 -31 -65 -42 -46
-23 -86 -70 -128 -147 -15 -27 -43 -63 -63 -80 -81 -67 -84 -72 -77 -112 10
-56 19 -60 54 -23 17 18 32 31 34 29 2 -2 16 -32 31 -66 l28 -63 18 24 c11 13
19 31 19 39 0 9 12 25 27 37 25 19 26 23 10 31 -28 16 -21 58 16 91 19 19 31
38 29 50 -4 24 15 48 37 48 10 0 27 -9 39 -21 l22 -20 -37 -37 c-31 -30 -37
-43 -35 -69 l3 -32 71 -3 c51 -2 73 -7 76 -17 3 -10 0 -12 -11 -8 -9 3 -19 2
-22 -3 -4 -6 -25 -10 -48 -10 -35 -1 -39 -3 -26 -13 12 -9 14 -18 8 -35 -9
-24 -28 -29 -47 -10 -9 9 -12 3 -12 -28 0 -37 -3 -41 -41 -57 -23 -10 -47 -16
-54 -13 -7 2 -17 0 -22 -5 -6 -6 -25 -6 -52 0 -32 7 -49 6 -69 -5 -15 -8 -35
-14 -44 -14 -13 0 -18 -8 -18 -30 0 -24 -4 -30 -23 -30 -13 0 -26 -9 -32 -22
-12 -27 -72 -61 -93 -53 -8 3 -1 -9 17 -27 26 -27 31 -40 31 -79 l0 -48 -70 6
-70 6 0 -81 c0 -69 2 -80 15 -76 8 4 21 1 29 -5 10 -8 23 -8 52 1 32 11 39 19
45 48 4 19 19 45 33 57 14 12 26 26 26 32 0 18 32 42 50 36 9 -3 23 1 30 10
20 24 48 18 64 -13 19 -38 103 -106 111 -91 6 9 -21 38 -37 39 -10 0 -48 70
-48 90 0 10 6 20 13 23 17 5 127 -106 127 -129 0 -10 9 -30 20 -44 11 -14 20
-34 20 -44 0 -15 3 -17 12 -8 7 7 8 15 1 24 -5 7 -9 27 -9 43 1 29 3 30 46 30
38 0 45 3 43 19 -2 23 41 118 60 134 10 8 20 8 40 -3 22 -11 28 -11 37 0 13
16 65 29 79 20 6 -3 2 -19 -9 -38 l-19 -32 40 -29 c83 -63 29 -111 -78 -70
-41 16 -44 16 -64 -2 -12 -10 -22 -18 -23 -16 0 1 -16 -3 -33 -10 -36 -14 -43
-40 -19 -73 9 -12 20 -16 36 -12 13 3 32 1 42 -4 14 -7 23 -7 34 1 22 19 44 4
44 -29 0 -42 -28 -109 -48 -115 -34 -9 -148 2 -177 18 -41 22 -65 21 -65 -4 0
-11 -6 -23 -14 -26 -17 -7 -86 22 -86 35 0 6 -8 11 -17 11 -30 0 -85 39 -76
53 4 6 8 22 8 34 1 21 -2 22 -69 17 -39 -3 -92 -14 -118 -26 -26 -11 -57 -18
-69 -15 -29 8 -84 -49 -93 -94 -4 -22 -15 -40 -31 -50 -14 -8 -43 -44 -64 -78
-35 -60 -37 -66 -28 -107 7 -31 7 -51 -1 -68 -9 -20 -6 -31 24 -77 19 -29 34
-57 34 -61 0 -4 20 -21 44 -37 43 -30 45 -30 112 -20 140 21 159 22 173 5 8
-9 23 -16 34 -16 38 0 54 -26 49 -78 -3 -40 0 -53 20 -77 36 -45 62 -177 39
-201 -20 -19 -14 -89 13 -144 14 -30 26 -68 26 -84 0 -16 7 -37 15 -46 9 -10
24 -41 35 -71 l19 -54 54 1 c37 1 66 8 90 23 42 26 87 91 87 126 0 18 7 28 24
35 28 10 36 34 24 69 -11 30 10 64 53 86 16 9 34 28 40 42 10 28 4 79 -13 100
-6 7 -8 19 -5 27 3 7 1 18 -4 23 -13 13 42 96 106 163 46 47 122 166 112 176
-1 2 -27 -3 -57 -11 -48 -13 -57 -13 -77 1 -13 8 -23 23 -23 34 0 11 -11 27
-25 36 -26 17 -75 93 -75 116 0 8 -18 50 -40 94 -22 43 -40 85 -40 92 0 14 16
16 25 2 3 -5 11 -7 18 -4 7 2 18 -9 25 -25 7 -17 24 -46 37 -65 12 -18 26 -44
30 -57 4 -12 20 -40 36 -62 16 -22 31 -55 35 -73 6 -30 9 -33 33 -28 22 5 111
46 192 89 10 5 20 20 24 32 3 13 10 22 16 20 14 -3 21 15 11 28 -4 6 -18 17
-31 26 -22 14 -28 14 -53 1 -39 -19 -51 -12 -93 53 -28 45 -33 60 -24 71 17
21 47 17 60 -8 17 -31 40 -47 68 -48 14 0 33 -8 44 -17 15 -14 36 -18 98 -17
69 1 79 -2 85 -18 3 -11 19 -21 35 -25 28 -5 41 -23 17 -23 -9 0 -9 -3 1 -12
10 -11 14 -10 22 5 18 32 29 17 29 -40 0 -71 64 -221 86 -202 12 10 24 48 29
95 2 12 25 41 51 65 26 24 57 54 68 67 11 12 28 22 38 22 11 0 27 4 37 9 14 8
24 2 49 -31 18 -23 32 -53 32 -66 0 -20 2 -22 15 -12 21 18 32 6 45 -52 11
-44 14 -49 21 -30 5 12 11 22 14 22 16 0 72 -34 86 -53 l17 -20 25 25 c23 23
25 30 17 59 -5 18 -22 46 -37 61 l-28 29 34 31 c21 18 40 28 52 25 22 -6 103
17 135 37 12 8 33 34 47 58 21 36 25 52 20 89 -3 24 -13 54 -21 67 -14 21 -13
25 9 49 20 22 21 25 5 19 -21 -7 -56 18 -56 41 0 7 11 18 24 23 13 5 27 14 31
19 8 14 45 14 45 1 0 -5 9 -10 20 -10 13 0 24 -10 30 -25 5 -14 14 -25 20 -25
6 0 10 -8 9 -17 -3 -38 1 -64 11 -58 13 8 13 41 -2 81 -10 29 -9 35 15 66 53
67 57 70 73 57 33 -27 110 83 134 193 16 70 9 94 -20 76 -19 -11 -24 -10 -40
10 -10 12 -23 22 -29 22 -19 0 -12 19 15 37 15 10 50 39 79 65 l52 48 74 -4
c41 -2 81 -7 90 -11 11 -4 27 4 46 23 35 36 102 58 116 39 7 -9 10 -9 14 1 2
6 18 12 33 12 l29 0 -20 -35 c-12 -19 -24 -35 -27 -35 -4 0 -23 -14 -42 -31
-19 -17 -46 -35 -59 -40 -22 -9 -23 -13 -19 -74 5 -82 20 -100 43 -54 10 19
25 43 35 54 22 25 33 72 20 80 -38 23 42 75 110 72 32 -2 58 5 97 25 30 15 63
28 75 28 19 0 20 1 4 25 -20 31 -20 35 2 35 11 0 27 9 36 19 19 20 15 21 99
-26 18 -10 23 -9 30 2 4 8 16 15 25 16 9 0 -5 12 -33 25 -27 13 -79 42 -114
64 -80 51 -177 77 -165 45 9 -22 -24 -30 -44 -12 -11 10 -43 17 -83 20 -76 5
-89 11 -89 37 0 23 -57 44 -94 34 -20 -5 -34 1 -61 24 -33 30 -158 77 -175 67
-4 -3 -6 -14 -3 -25 7 -27 -13 -33 -83 -21 -48 8 -61 7 -70 -5 -26 -33 -70 8
-59 56 9 43 -9 63 -49 54 -17 -3 -35 -10 -40 -15 -16 -15 -93 -10 -110 6 -20
20 -121 30 -170 16 -22 -6 -42 -9 -44 -7 -11 11 36 59 85 86 30 17 53 36 51
42 -3 7 -16 21 -31 32 -23 17 -30 18 -51 7 -30 -17 -59 -7 -76 24 -14 26 -16
27 -37 18z m-876 -1033 c3 -11 12 -20 20 -20 24 0 8 -25 -18 -28 -40 -6 -42
-18 -9 -63 27 -38 29 -45 16 -55 -9 -6 -12 -15 -7 -20 5 -5 11 -26 14 -46 6
-38 5 -38 -28 -38 -75 0 -99 31 -75 96 9 22 7 29 -10 41 -11 8 -20 23 -20 33
0 10 -4 22 -10 25 -16 10 -12 20 24 59 41 42 94 51 103 16z"/>
<path d="M4322 2360 c-20 -25 -21 -32 -10 -57 7 -15 20 -34 30 -41 14 -10 15
-18 7 -42 -18 -49 -8 -73 31 -81 19 -4 36 -7 37 -5 1 1 -3 21 -8 45 -7 32 -6
47 3 59 9 11 9 14 1 9 -8 -5 -19 8 -33 37 -25 57 -25 76 0 76 11 0 20 7 20 15
0 27 -53 17 -78 -15z"/>
<path d="M5990 3206 c0 -2 7 -7 16 -10 8 -3 12 -2 9 4 -6 10 -25 14 -25 6z"/>
<path d="M4757 3004 c-15 -13 -24 -24 -20 -24 11 1 57 40 52 44 -2 3 -17 -7
-32 -20z"/>
<path d="M3840 2938 c3 -38 1 -43 -30 -61 -35 -21 -41 -61 -12 -83 16 -13 15
-15 -10 -35 -16 -11 -28 -26 -28 -33 0 -16 -49 -86 -61 -86 -5 0 -12 8 -15 18
-3 9 -11 27 -17 40 -11 22 -11 22 -24 -9 -26 -61 -6 -76 92 -70 65 4 94 21 89
51 -7 37 10 58 35 43 15 -10 20 -9 25 2 2 7 -2 19 -10 26 -8 7 -13 17 -10 24
2 6 -5 17 -15 23 -32 20 -26 81 11 116 34 32 35 49 1 54 -18 3 -22 -1 -21 -20z"/>
<path d="M3626 2753 c-11 -11 -7 -20 9 -20 8 0 15 4 15 8 0 11 -16 20 -24 12z"/>
<path d="M3339 2748 c-7 -25 -7 -48 0 -43 15 9 24 -15 11 -30 -10 -12 -7 -17
14 -25 19 -7 26 -17 26 -35 0 -14 -4 -25 -9 -25 -5 0 -11 -9 -14 -20 -4 -15 0
-20 16 -20 21 0 21 -1 -3 -21 l-25 -21 34 6 c18 3 39 6 46 6 6 0 17 11 23 25
15 33 15 35 -3 35 -8 0 -16 5 -16 10 -3 21 -5 26 -23 53 -10 15 -27 27 -38 27
-18 0 -18 2 -4 22 21 29 20 40 -1 36 -10 -2 -17 3 -15 10 1 9 -16 19 -19 10z"/>
<path d="M3617 2713 c-4 -3 -7 -20 -6 -37 l1 -31 9 34 c10 33 8 47 -4 34z"/>
<path d="M6014 2465 c1 -18 4 -31 9 -28 10 6 9 51 -1 57 -5 3 -8 -10 -8 -29z"/>
<path d="M4101 2386 c-8 -10 -9 -16 -1 -21 13 -8 30 3 30 21 0 18 -14 18 -29
0z"/>
<path d="M3986 2334 c-20 -43 -23 -60 -15 -70 14 -17 45 -18 55 -3 4 6 20 8
40 5 19 -3 50 -9 69 -12 19 -3 42 -3 51 0 15 6 14 10 -7 32 -36 39 -75 57 -98
45 -14 -8 -22 -6 -35 8 -9 10 -14 20 -11 23 3 3 -1 10 -9 17 -12 10 -19 2 -40
-45z"/>
<path d="M4060 2355 c0 -9 6 -12 15 -9 8 4 12 10 9 15 -8 14 -24 10 -24 -6z"/>
<path d="M3680 2346 c0 -16 97 -116 112 -116 21 0 1 36 -32 58 -19 13 -41 34
-48 48 -14 27 -32 32 -32 10z"/>
<path d="M3580 2305 c-7 -9 -21 -13 -31 -10 -13 4 -21 0 -26 -12 -4 -10 -19
-30 -35 -45 -16 -15 -28 -37 -28 -51 0 -29 -45 -67 -79 -67 -12 0 -21 -4 -21
-10 0 -16 54 -11 96 9 40 20 172 35 190 23 12 -8 12 -51 1 -69 -5 -9 0 -16 15
-22 42 -16 72 -31 106 -51 30 -18 32 -18 32 -2 0 41 43 54 86 26 15 -11 52
-18 100 -20 l75 -3 15 34 c18 43 19 88 2 83 -7 -3 -13 -15 -13 -29 0 -26 -30
-38 -49 -19 -8 8 -7 15 6 24 23 17 12 27 -19 20 -29 -8 -73 20 -73 46 0 10 -5
22 -10 25 -6 4 -8 15 -5 26 5 16 1 19 -23 19 -26 0 -29 -3 -25 -22 3 -13 10
-28 15 -34 5 -7 4 -22 -3 -37 -10 -21 -15 -24 -30 -16 -11 5 -19 17 -19 25 0
23 -33 81 -37 66 -3 -6 -9 -10 -14 -6 -5 3 -9 -1 -9 -9 0 -7 -8 -22 -18 -33
-10 -11 -17 -25 -15 -31 6 -18 -14 -24 -27 -8 -7 8 -19 15 -26 15 -8 0 -14 5
-14 10 0 6 4 10 9 10 5 0 21 4 35 10 33 12 27 28 -34 79 l-49 42 2 -53 c2 -47
0 -53 -19 -56 -27 -4 -39 32 -17 53 8 8 11 20 8 25 -4 6 1 22 9 35 16 24 15
25 -3 25 -10 0 -24 -7 -31 -15z m-59 -100 c0 -5 -9 -11 -21 -13 -20 -3 -27 8
-13 22 10 9 34 3 34 -9z m414 -108 c24 -18 4 -31 -35 -22 -43 10 -39 24 11 34
3 0 13 -5 24 -12z"/>
<path d="M3605 2221 c-3 -5 -1 -12 5 -16 5 -3 10 1 10 9 0 18 -6 21 -15 7z"/>
<path d="M4322 1953 c24 -51 33 -63 45 -63 7 0 13 -9 13 -20 0 -14 7 -20 23
-20 13 0 32 9 42 20 18 19 17 20 -7 20 -29 0 -78 35 -78 56 0 8 -9 14 -21 14
-11 0 -19 -3 -17 -7z"/>
<path d="M4060 1926 c0 -11 53 -116 61 -121 5 -4 9 -14 9 -23 0 -28 36 -91 64
-113 22 -17 26 -18 26 -4 0 21 -35 88 -54 104 -9 8 -16 21 -16 31 0 9 -8 28
-19 41 -10 13 -26 39 -35 57 -9 17 -21 32 -26 32 -6 0 -10 -2 -10 -4z"/>
<path d="M5220 1562 c0 -5 7 -15 15 -22 8 -7 15 -8 15 -2 0 5 -7 15 -15 22 -8
7 -15 8 -15 2z"/>
<path d="M4897 1529 c4 -13 8 -18 11 -10 2 7 -1 18 -6 23 -8 8 -9 4 -5 -13z"/>
<path d="M5270 1497 c0 -8 9 -25 19 -38 l19 -24 -5 27 c-6 32 -33 60 -33 35z"/>
<path d="M5202 1467 c14 -13 38 -45 53 -71 44 -76 95 -119 95 -82 0 17 -58
106 -69 106 -4 0 -26 16 -48 35 -46 39 -70 48 -31 12z"/>
<path d="M5378 1273 c7 -3 16 -2 19 1 4 3 -2 6 -13 5 -11 0 -14 -3 -6 -6z"/>
<path d="M5438 1263 c6 -2 18 -2 25 0 6 3 1 5 -13 5 -14 0 -19 -2 -12 -5z"/>
<path d="M5925 3300 c-14 -22 14 -38 50 -30 19 4 37 4 40 -1 3 -4 13 -5 22 -2
14 5 13 9 -7 25 -18 14 -26 16 -37 7 -10 -9 -17 -9 -25 -1 -15 15 -35 15 -43
2z"/>
<path d="M6100 3256 c0 -2 7 -7 16 -10 8 -3 12 -2 9 4 -6 10 -25 14 -25 6z"/>
<path d="M1757 3232 c-10 -10 -17 -29 -16 -43 l0 -24 9 23 c5 12 16 22 24 22
7 0 16 9 19 20 7 25 -14 26 -36 2z"/>
<path d="M1874 3229 c-3 -6 -12 -33 -19 -60 -12 -45 -12 -50 5 -59 24 -13 83
-12 139 1 l45 10 63 -63 c53 -53 63 -67 58 -88 -8 -34 -41 -60 -76 -60 -16 0
-29 -5 -29 -10 0 -7 13 -8 34 -5 35 7 101 -18 91 -34 -3 -5 9 -14 27 -20 31
-11 31 -11 13 9 -25 28 -10 38 26 18 25 -15 29 -15 29 -2 0 9 -16 30 -35 48
-41 39 -43 51 -13 67 19 10 25 8 50 -21 28 -34 33 -32 40 13 2 15 -11 25 -59
45 -35 14 -63 29 -63 32 0 4 12 12 28 19 l27 13 -40 34 c-22 19 -51 37 -65 40
-14 4 -35 16 -47 27 -20 18 -27 19 -60 9 -36 -12 -39 -11 -64 18 -20 23 -34
30 -62 30 -20 0 -39 -5 -43 -11z"/>
<path d="M2005 3230 c3 -5 16 -10 28 -9 21 0 21 1 2 9 -28 12 -37 12 -30 0z"/>
<path d="M1241 3221 c-7 -5 -11 -13 -8 -18 4 -6 -2 -26 -12 -45 -17 -34 -17
-36 1 -47 23 -14 58 -5 58 14 0 8 18 28 40 46 41 33 44 49 7 48 -12 0 -33 2
-47 6 -14 3 -31 1 -39 -4z"/>
<path d="M1650 3215 c9 -11 10 -18 1 -29 -14 -17 9 -39 35 -34 26 5 29 29 5
35 -24 6 -26 14 -9 31 9 9 6 12 -16 12 -24 0 -27 -2 -16 -15z"/>
<path d="M1997 3209 c7 -7 15 -10 18 -7 3 3 -2 9 -12 12 -14 6 -15 5 -6 -5z"/>
<path d="M1525 3167 c8 -29 -8 -43 -25 -22 -8 9 -21 13 -36 9 -14 -4 -24 -2
-24 5 0 7 -8 8 -25 1 -23 -9 -29 -6 -26 13 2 14 -19 7 -39 -13 -24 -24 -25
-36 -4 -44 8 -3 13 -10 10 -15 -3 -5 17 -11 44 -13 83 -8 83 -28 -1 -36 -50
-5 -51 -22 -1 -22 12 0 22 -5 22 -11 0 -14 57 -2 88 18 18 11 30 12 53 4 23
-8 29 -7 29 4 0 7 6 16 13 19 8 3 6 9 -8 21 -11 8 -27 34 -36 57 -18 47 -44
66 -34 25z"/>
<path d="M1742 3128 c-21 -21 -15 -56 11 -60 28 -4 32 -44 7 -66 -10 -8 -16
-21 -13 -28 3 -8 1 -14 -3 -14 -15 0 -30 14 -38 34 -6 19 -7 19 -22 -2 -13
-19 -21 -21 -57 -16 -23 4 -52 13 -65 21 -31 19 -44 8 -36 -33 7 -38 -7 -46
-28 -15 -11 15 -25 18 -70 17 -57 -1 -83 9 -59 23 13 8 -104 38 -124 31 -28
-8 -52 -6 -66 7 -15 12 -21 11 -50 -6 -19 -12 -48 -21 -66 -21 -17 0 -35 -5
-39 -11 -4 -6 -17 -8 -33 -4 -14 3 -79 10 -143 14 -64 4 -123 12 -130 18 -17
15 -85 9 -128 -10 -49 -22 -94 -75 -79 -93 6 -8 17 -14 24 -14 7 0 18 -7 25
-15 18 -22 -15 -45 -52 -38 -22 4 -28 2 -28 -12 0 -14 6 -16 28 -11 53 13 57
12 60 -16 3 -24 -2 -30 -38 -44 -34 -14 -41 -20 -36 -38 3 -12 6 -24 6 -28 0
-5 11 -8 25 -8 14 0 25 -4 25 -10 0 -5 20 -10 45 -10 49 0 54 -7 28 -48 l-18
-27 37 30 c20 17 37 36 37 44 1 16 76 91 91 91 17 0 11 -28 -8 -42 -10 -7 -22
-19 -26 -26 -15 -25 31 6 52 35 19 26 20 26 45 10 15 -9 38 -17 52 -17 44 0
98 -29 145 -79 25 -26 53 -50 63 -54 9 -4 21 -17 26 -29 13 -31 67 -88 84 -88
16 0 57 -41 57 -58 0 -6 -6 -9 -12 -7 -10 4 -14 -21 -15 -102 -2 -89 1 -112
17 -142 11 -20 24 -48 30 -63 5 -16 16 -28 23 -28 18 0 51 -38 67 -78 16 -42
33 -52 18 -12 -5 17 -8 34 -4 37 8 8 54 -35 61 -58 3 -10 32 -46 63 -79 31
-34 59 -74 62 -88 4 -22 17 -31 63 -50 32 -13 72 -25 88 -27 16 -2 42 -13 58
-24 16 -12 35 -21 42 -21 27 0 97 -50 103 -74 3 -13 13 -27 23 -30 15 -6 16
-5 1 11 -10 11 -13 25 -9 37 4 11 6 30 3 43 -4 20 -10 23 -46 23 -47 0 -60 7
-47 24 4 6 11 20 13 31 3 11 9 28 13 38 5 13 2 17 -14 17 -15 0 -25 -9 -32
-30 -10 -26 -16 -30 -49 -30 -31 0 -44 7 -70 36 -25 29 -30 42 -25 63 4 14 7
41 7 59 -1 46 53 87 103 79 20 -3 35 -2 35 4 0 6 28 9 67 7 65 -3 68 -4 77
-33 4 -16 13 -39 17 -50 7 -15 8 -13 4 10 -19 106 -21 98 29 142 43 38 46 44
46 91 0 32 5 54 15 62 8 7 15 9 15 4 0 -4 6 0 13 10 7 9 23 22 37 29 14 7 26
21 28 32 6 29 19 42 68 67 24 12 44 24 44 28 0 3 -7 16 -16 28 -15 22 -15 24
2 37 16 12 17 14 3 15 -9 0 -37 -16 -63 -36 -51 -39 -69 -40 -39 -3 47 59 75
77 129 84 72 9 134 39 134 66 0 19 -4 20 -35 15 -35 -7 -51 9 -20 20 21 9 19
24 -4 24 -19 0 -57 47 -47 57 3 3 -5 24 -16 47 -14 27 -23 35 -25 25 -2 -9
-15 -22 -28 -29 -37 -20 -75 0 -75 40 0 19 -5 30 -14 30 -7 0 -19 7 -26 15 -7
9 -29 15 -51 15 l-39 0 5 -52 c3 -29 8 -71 11 -92 5 -31 3 -42 -11 -53 -14
-10 -18 -24 -16 -62 2 -54 -20 -77 -39 -41 -6 11 -17 20 -24 20 -8 0 -17 15
-20 35 -5 26 -12 35 -27 35 -12 0 -34 10 -51 21 -17 12 -43 22 -59 21 -22 0
-33 6 -44 27 -8 16 -24 31 -35 34 -17 4 -20 10 -14 34 7 29 42 85 57 92 4 1 0
9 -10 17 -16 12 -15 13 14 14 17 0 44 5 60 11 l28 12 -31 8 c-17 5 -37 16 -44
24 -11 13 -6 15 34 15 26 0 45 4 42 9 -8 12 17 21 41 15 10 -3 26 1 37 9 15
11 16 18 8 34 -8 15 -8 23 1 32 9 9 8 14 -3 21 -21 14 -41 12 -39 -2 2 -7 -5
-30 -14 -52 -16 -37 -18 -38 -39 -23 -16 10 -22 23 -21 43 2 28 2 28 -7 6 -12
-28 -34 -24 -38 6 -2 12 -10 22 -19 22 -9 0 -13 6 -9 15 6 16 -12 65 -24 65
-3 0 -11 -5 -18 -12z"/>
<path d="M1690 3045 c0 -8 9 -15 20 -15 11 0 20 2 20 5 0 2 -9 9 -20 15 -16 9
-20 8 -20 -5z"/>
<path d="M1507 3019 c-43 -25 -80 -29 -101 -11 -16 13 -18 13 -8 1 6 -9 8 -19
4 -24 -4 -4 14 -5 40 -2 38 5 49 3 58 -11 8 -14 9 -12 4 9 -5 23 -1 28 23 37
15 6 21 11 13 11 -8 0 -23 -4 -33 -10z"/>
<path d="M1916 2913 c-3 -3 -6 -17 -6 -31 0 -19 4 -23 18 -17 9 5 25 8 35 9 9
0 17 1 17 2 0 9 -59 42 -64 37z"/>
<path d="M706 2684 c-4 -9 -4 -19 -1 -22 2 -3 7 3 11 12 4 9 4 19 1 22 -2 3
-7 -3 -11 -12z"/>
<path d="M2409 2462 l-16 -29 45 -12 c24 -6 47 -10 49 -7 10 10 -9 46 -24 46
-9 0 -21 7 -27 15 -9 13 -13 11 -27 -13z"/>
<path d="M2123 1596 c-17 -8 -34 -24 -38 -35 -3 -12 -10 -21 -13 -21 -4 0 -6
-17 -4 -39 3 -31 -2 -47 -27 -81 -48 -66 -49 -98 -8 -167 19 -32 38 -68 41
-80 7 -21 49 -64 95 -93 39 -26 37 -81 -9 -313 -56 -284 -64 -357 -43 -409 20
-49 83 -98 127 -98 l31 1 -28 15 c-52 28 -61 89 -20 142 14 19 27 49 28 66 4
51 31 111 50 108 12 -2 14 2 9 22 -4 16 -2 26 4 26 6 0 18 8 28 18 18 17 22
19 57 21 13 1 17 8 15 24 -2 17 2 22 17 21 24 -2 121 111 137 159 14 41 33 62
67 77 16 6 34 22 41 35 7 14 21 27 32 31 13 4 18 15 18 43 0 62 11 100 30 106
24 8 59 63 53 84 -5 21 -89 65 -167 88 -44 13 -64 25 -75 45 -9 16 -23 30 -33
33 -9 3 -23 17 -32 30 -9 14 -33 29 -55 35 -22 6 -58 28 -81 49 -41 38 -52 42
-190 66 -14 2 -39 -2 -57 -9z"/>
<path d="M2080 3000 c0 -5 5 -10 10 -10 6 0 10 5 10 10 0 6 -4 10 -10 10 -5 0
-10 -4 -10 -10z"/>
<path d="M3131 2984 c-19 -6 -44 -21 -56 -33 -29 -27 -33 -27 -46 5 -5 15 -12
24 -16 20 -14 -13 22 -56 54 -65 49 -14 143 21 143 53 0 21 -43 32 -79 20z"/>
<path d="M3262 2625 c-16 -16 -19 -24 -10 -27 10 -4 10 -8 -1 -22 -19 -23 -6
-32 24 -16 15 8 26 23 27 37 0 13 1 28 2 35 2 20 -18 17 -42 -7z"/>
<path d="M6002 2279 c-10 -16 -9 -19 5 -18 10 0 26 4 36 8 17 6 17 8 -5 18
-20 9 -26 8 -36 -8z"/>
<path d="M5976 2179 c-7 -36 -32 -69 -52 -69 -7 0 -18 -9 -24 -20 -10 -18 -9
-20 12 -15 13 3 33 7 46 8 17 1 22 7 22 30 0 15 5 37 10 48 7 12 7 25 2 35 -7
13 -10 9 -16 -17z"/>
<path d="M5848 2073 c7 -3 16 -2 19 1 4 3 -2 6 -13 5 -11 0 -14 -3 -6 -6z"/>
<path d="M5840 2039 c0 -5 5 -7 10 -4 6 3 10 8 10 11 0 2 -4 4 -10 4 -5 0 -10
-5 -10 -11z"/>
<path d="M5804 2020 c0 -13 4 -16 10 -10 7 7 7 13 0 20 -6 6 -10 3 -10 -10z"/>
<path d="M5620 1845 c0 -8 2 -15 4 -15 2 0 6 7 10 15 3 8 1 15 -4 15 -6 0 -10
-7 -10 -15z"/>
<path d="M2007 1809 c7 -7 15 -10 18 -7 3 3 -2 9 -12 12 -14 6 -15 5 -6 -5z"/>
<path d="M2040 1765 c0 -8 4 -15 10 -15 5 0 7 7 4 15 -4 8 -8 15 -10 15 -2 0
-4 -7 -4 -15z"/>
<path d="M2107 1698 c-3 -9 6 -13 29 -13 39 0 45 10 12 19 -32 8 -35 8 -41 -6z"/>
<path d="M5618 1705 c-6 -28 6 -34 16 -9 8 22 7 34 -3 34 -5 0 -11 -11 -13
-25z"/>
<path d="M5675 1580 c-3 -5 1 -10 10 -10 9 0 13 5 10 10 -3 6 -8 10 -10 10 -2
0 -7 -4 -10 -10z"/>
<path d="M5697 1553 c-4 -3 -7 -13 -7 -20 0 -12 3 -12 15 1 8 8 15 17 15 20 0
8 -15 7 -23 -1z"/>
<path d="M5534 1497 c-42 -45 -88 -78 -100 -73 -9 3 -13 -1 -11 -12 6 -36 25
-54 65 -62 40 -7 41 -7 58 33 10 22 17 51 16 64 -2 13 1 30 7 37 8 10 8 16 -2
24 -9 8 -18 5 -33 -11z"/>
<path d="M5605 1350 c-3 -11 -2 -28 4 -37 9 -16 10 -16 11 5 0 12 5 22 10 22
6 0 15 -10 20 -22 5 -13 9 -17 9 -10 2 39 -44 75 -54 42z"/>
<path d="M5896 1356 c-18 -14 -17 -15 7 -21 30 -8 62 -40 53 -54 -9 -14 54
-25 67 -12 16 16 49 14 77 -6 16 -10 10 0 -15 26 -22 24 -52 49 -66 57 -43 22
-101 27 -123 10z"/>
<path d="M5840 1190 c0 -5 -9 -10 -20 -10 -13 0 -24 -10 -30 -25 -8 -22 -13
-24 -36 -15 -22 9 -31 6 -57 -16 -18 -14 -39 -37 -47 -51 -10 -17 -32 -31 -59
-39 -60 -17 -86 -48 -85 -99 0 -22 5 -49 11 -60 19 -34 32 -94 22 -101 -5 -3
-9 -9 -9 -15 0 -11 57 -12 64 0 3 4 20 11 37 15 17 3 43 14 57 24 65 43 151
47 190 8 13 -13 17 -13 38 1 22 14 24 14 24 -4 0 -10 11 -35 25 -55 24 -35 27
-36 82 -36 64 0 103 18 103 48 0 10 10 36 22 56 15 25 22 55 23 89 0 46 -4 55
-37 89 -21 22 -38 42 -38 46 0 4 -9 10 -20 13 -11 3 -23 13 -26 24 -13 38 -34
79 -55 103 l-21 25 6 -33 c4 -21 0 -45 -9 -63 l-15 -29 -50 28 c-47 26 -63 53
-40 67 20 12 9 25 -20 25 -16 0 -30 -4 -30 -10z"/>
<path d="M4331 1134 c-1 -24 -25 -48 -57 -58 -17 -5 -22 -15 -22 -44 0 -20 -3
-50 -7 -67 -7 -35 14 -71 37 -63 8 4 21 38 32 84 10 44 21 90 25 104 4 14 4
35 0 45 -7 19 -8 19 -8 -1z"/>
<path d="M6600 744 c0 -8 0 -17 -1 -21 -1 -16 17 -12 28 6 10 16 9 20 -8 24
-12 3 -19 0 -19 -9z"/>
<path d="M6528 652 c-15 -15 -37 -36 -49 -46 -22 -19 -22 -20 -3 -26 14 -5 23
0 35 19 9 14 26 35 38 45 21 19 28 36 14 36 -5 -1 -20 -13 -35 -28z"/>
<path d="M6060 639 c0 -4 6 -11 13 -18 10 -8 17 -7 25 1 18 18 15 23 -13 23
-14 0 -25 -3 -25 -6z"/>
</g>
</svg>
